<svg xmlns="http://www.w3.org/2000/svg" width="463.938" height="330.875"><path data-name="общий контур" d="M455.748 232.84l-52.814 4.035a114.048 114.048 0 01-2.621 5.9l49.79 18.792c4.56 1.721 6.7 7.451 4.774 12.8l-5.222 14.524c-1.923 5.348-7.179 8.288-11.738 6.567l-58.589-22.113c-31.975 34.766-85.151 57.53-145.359 57.53-60.854 0-114.53-23.253-146.386-58.659l-61.561 23.235c-4.56 1.721-9.815-1.219-11.738-6.567L9.061 274.36c-1.923-5.348.215-11.078 4.775-12.8l53.193-20.077a109.704 109.704 0 01-1.871-4.3l-56.967-4.348c-4.861-.371-8.527-5.319-8.188-11.053l.921-15.571c.339-5.733 4.555-10.08 9.416-9.709l46.72 3.573c-.033-1.068-.091-2.129-.091-3.2 0-22.373 7.253-43.461 20.06-62a4.264 4.264 0 01-1.06-1c-6.778-9.942-17.71-125.336 2-133 22.971-8.932 87.052 53.218 97.654 69.461a232.061 232.061 0 01113.281-.871c12.192-17.476 74.487-77.369 97.065-68.59 18.86 7.333 9.665 113.284 2.9 131.128 14.075 19.222 22.1 41.336 22.1 64.872 0 .969-.057 1.928-.084 2.892l42.715-3.26c4.861-.371 9.077 3.976 9.416 9.709l.92 15.571c.34 5.734-3.326 10.682-8.188 11.053zm-180.779 39.035c-14.932-3.12-27.612-7-43-7s-28.068 3.88-43 7c-5.9 1.233-10.466 1-10-6s29.685-17 53-17 52.534 10 53 17-4.1 7.233-10 6zm-120.5-114a29.5 29.5 0 11-29.5 29.5 29.5 29.5 0 0129.5-29.5zm155 0a29.5 29.5 0 11-29.5 29.5 29.5 29.5 0 0129.5-29.5z" fill="#f871be" fill-rule="evenodd"/></svg>